# xmcd
#
# Track frame offsets: 
#        151
#        19513
#        43803
#        63251
#        85403
#        101874
#        120754
#        135174
#        144860
#        162120
#        181267
#        195381
#        209431
#        221852
#        233736
#        247970
#        256832
#        270800
#        282863
#
# Disc length: 3921 seconds
#
# Revision: 0
# Processed by: cddbd v1.5.2PL0 Copyright (c) Steve Scherf et al.
# Submitted via: ExactAudioCopy v0.95b4
#
DISCID=f90f4f13
DTITLE=Various Artist - Christmas Songs 2
DYEAR=2006
DGENRE=Pop
TTITLE0=Disneyland Paris - Chante, c'est Noel! The Christmas Parade
TTITLE1=Boney M - Mary's Boy Child - Oh my Lord
TTITLE2=A la Carte - It was a night of wonder
TTITLE3=Kate Bush - December will be magic again
TTITLE4=Albert Hammond - Under the Christmas tree
TTITLE5=3T - Endless Christmas
TTITLE6=Cindy Lauper - December Child
TTITLE7=Art Garfunkel - Oh come all ye faithful
TTITLE8=Enya - Oiche Chiún (Silent Night)
TTITLE9=Marillion - Gabriel's Message
TTITLE10=Andy Williams - The first Noel
TTITLE11=Bing Crosby - White Christmas
TTITLE12=Judy Garland - Have yourself a merry little Christmas
TTITLE13=Doris Day - Here comes Santa Claus
TTITLE14=Gene Autry and The Pinafores - Rudolf, the red nosed reindeer
TTITLE15=Dean Martin - Let it snow!
TTITLE16=José Feliciano - Feliz Navidad
TTITLE17=Andy Williams - Happy Holiday
TTITLE18=The Wavers - We wish you a merry Christmas
EXTD=
EXTT0=
EXTT1=
EXTT2=
EXTT3=
EXTT4=
EXTT5=
EXTT6=
EXTT7=
EXTT8=
EXTT9=
EXTT10=
EXTT11=
EXTT12=
EXTT13=
EXTT14=
EXTT15=
EXTT16=
EXTT17=
EXTT18=
PLAYORDER=
